<?xml version="1.0" standalone="no"?> <!DOCTYPE svg PUBLIC "-//W3C//DTD SVG 1.0//EN" "http://www.w3.org/TR/2001/REC-SVG-20010904/DTD/svg10.dtd" > <svg xmlns="http://www.w3.org/2000/svg" width="100%" height="100%">
<defs >
<font id="futurabtboldcondenseditalic" horiz-adv-x="717" ><font-face
    font-family="Futura Condensed"
    units-per-em="2048"
    panose-1="0 0 0 0 0 0 0 0 0 0"
    ascent="1972"
    descent="-489"
    alphabetic="0" />
<missing-glyph horiz-adv-x="450" />
<glyph unicode=" " glyph-name="space" horiz-adv-x="450" />
<glyph unicode="!" glyph-name="exclam" horiz-adv-x="563" d="M90 428L256 1479H555L389 428H90ZM389 190Q389 112 325 44T176 -25Q109 -25 66 22T23 145Q23 223 86 289T233 356Q303 356 346 310T389 190Z" />
<glyph unicode="&quot;" glyph-name="quotedbl" horiz-adv-x="643" d="M86 1436H250V879H86V1436ZM395 1436H559V879H395V1436Z" />
<glyph unicode="#" glyph-name="numbersign" horiz-adv-x="1574" d="M735 1460H926L772 1024H1022L1178 1460H1368L1214 1024H1505L1446 852H1153L1063 600H1372L1311 428H1004L848 -6H657L813 428H561L403 -6H213L369 428H70L131 600H428L518 852H203L264 1024H580L735
1460ZM709 852L618 598H874L965 852H709Z" />
<glyph unicode="$" glyph-name="dollar" horiz-adv-x="901" d="M133 -172L164 23Q40 64 -70 193L102 408Q231 248 360 248Q438 248 487 301T537 434Q537 511 470 571Q441 596 326 672Q199 754 141 837T82 1040Q82 1195 173 1309T416 1450L444 1636H537L510 1462Q517
1462 531 1463T553 1464Q588 1464 623 1458L651 1636H743L713 1438Q807 1408 885 1315L725 1112Q665 1169 614 1196T504 1223Q430 1223 388 1184T346 1085Q346 1050 357 1023T393 974T441 937T508 897T580 854Q664 800 714 750T792 635T819 489Q819 317 723 188T469
18L438 -172H338L365 2Q340 0 311 0Q281 0 260 2L233 -172H133Z" />
<glyph unicode="%" glyph-name="percent" horiz-adv-x="1521" d="M268 -18L1102 1479H1257L432 -18H268ZM1430 573Q1430 315 1338 149T1098 -18Q989 -18 932 50T874 250Q874 520 966 688T1206 856Q1430 856 1430 573ZM1196 705Q1161 705 1140 670T1100 553Q1051
358 1051 223Q1051 131 1112 131Q1147 131 1168 166T1208 285Q1255 477 1255 614Q1255 705 1196 705ZM651 1198Q651 1028 610 893T492 681T319 604Q211 604 154 672T96 872Q96 1143 188 1311T428 1479Q541 1479 596 1410T651 1198ZM416 1327Q381 1327 360 1292T319
1176Q272 983 272 846Q272 754 332 754Q367 754 387 790T428 909Q475 1102 475 1237Q475 1327 416 1327Z" />
<glyph unicode="&amp;" glyph-name="ampersand" horiz-adv-x="1179" d="M739 0L692 90Q565 -16 395 -16Q228 -16 131 87T33 365Q33 504 114 620T352 815Q272 939 272 1075Q272 1242 384 1349T676 1456Q815 1456 899 1382T983 1178Q983 1053 909 953T674 745L797
494Q889 554 963 651L1092 418Q1009 316 913 250L1036 0H739ZM592 309L457 598Q291 513 291 403Q291 340 333 298T440 256Q512 256 592 309ZM586 958Q648 988 681 1035T715 1135Q715 1235 627 1235Q585 1235 557 1203T528 1122Q528 1071 586 958Z" />
<glyph unicode="&apos;" glyph-name="quotesingle" horiz-adv-x="333" d="M86 1436H250V879H86V1436Z" />
<glyph unicode="(" glyph-name="parenleft" horiz-adv-x="567" d="M440 1548L645 1456Q299 916 299 231Q299 -72 393 -403L172 -434Q68 -79 68 262Q68 962 440 1548Z" />
<glyph unicode=")" glyph-name="parenright" horiz-adv-x="567" d="M90 -434L-113 -342Q231 192 231 881Q231 1199 139 1518L358 1546Q465 1170 465 850Q465 154 90 -434Z" />
<glyph unicode="*" glyph-name="asterisk" horiz-adv-x="901" d="M201 920L152 1042L395 1124L188 1278L270 1380L465 1212L496 1466L625 1446L573 1196L811 1294L858 1171L614 1090L821 936L737 834L545 1004L514 748L385 768L436 1020L201 920Z" />
<glyph unicode="+" glyph-name="plus" horiz-adv-x="1705" d="M768 1221H938V694H1452V528H938V0H768V528H254V694H768V1221Z" />
<glyph unicode="," glyph-name="comma" horiz-adv-x="450" d="M-203 -309L70 303H395L18 -309H-203Z" />
<glyph unicode="-" glyph-name="hyphen" horiz-adv-x="681" d="M25 326L76 655H602L551 326H25Z" />
<glyph unicode="." glyph-name="period" horiz-adv-x="450" d="M332 199Q332 116 268 46T119 -25Q52 -25 9 23T-35 152Q-35 233 28 303T176 373Q244 373 288 324T332 199Z" />
<glyph unicode="/" glyph-name="slash" horiz-adv-x="757" d="M0 -190L592 1479H758L170 -190H0Z" />
<glyph unicode="0" glyph-name="zero" horiz-adv-x="901" d="M864 997Q864 815 831 633T741 311Q673 143 581 63T362 -18Q196 -18 111 98T25 444Q25 639 58 823T147 1149Q214 1317 306 1398T526 1479Q698 1479 781 1360T864 997ZM512 1219Q458 1219 429 1161T367
961Q293 635 293 389Q293 238 383 238Q437 238 469 299T532 502Q602 813 602 1087Q602 1149 578 1184T512 1219Z" />
<glyph unicode="1" glyph-name="one" horiz-adv-x="901" d="M201 0L387 1186H244L287 1460H711L481 0H201Z" />
<glyph unicode="2" glyph-name="two" horiz-adv-x="901" d="M-90 0L330 612Q400 715 434 767T508 889T564 1007T580 1098Q580 1147 557 1174T492 1202Q435 1202 393 1134T334 938H74Q96 1199 221 1337T553 1475Q702 1475 788 1389T874 1155Q874 1117 870 1081T850
1000T825 928T785 845T743 768T688 680T631 595T565 498Q535 454 520 432L414 274H752L709 0H-90Z" />
<glyph unicode="3" glyph-name="three" horiz-adv-x="901" d="M-14 455H256Q252 401 252 391Q252 327 280 292T356 256Q422 256 462 324T502 508Q502 586 463 620T338 655H307L348 899Q353 899 364 898T381 897Q485 897 541 951T598 1100Q598 1153 576 1181T514
1210Q466 1210 435 1173T385 1057H133Q164 1270 265 1373T547 1477Q706 1477 793 1394T881 1157Q881 1001 807 894T602 758Q689 744 738 676T788 502Q788 358 731 240T569 52T330 -18Q165 -18 73 85T-20 371Q-20 388 -14 455Z" />
<glyph unicode="4" glyph-name="four" horiz-adv-x="901" d="M373 0L426 344H-10L33 616L524 1460H860L721 575H831L795 344H684L631 0H373ZM248 575H463L537 987Q558 1103 592 1225Q532 1079 485 995L248 575Z" />
<glyph unicode="5" glyph-name="five" horiz-adv-x="901" d="M59 324Q154 272 242 272Q353 272 421 344T489 530Q489 634 439 692T301 750Q239 750 113 713L340 1460H897L854 1180H518L457 952Q462 952 472 953T487 954Q634 954 716 856T799 580Q799 422 728 285T531
64T252 -20Q109 -20 -43 37L59 324Z" />
<glyph unicode="6" glyph-name="six" horiz-adv-x="901" d="M508 1460H817L582 1116Q579 1111 564 1090T542 1057T521 1024T496 981T473 936Q538 977 598 977Q697 977 760 890T823 651Q823 462 760 309T587 68T340 -20Q192 -20 104 82T16 365Q16 595 136 849T508
1460ZM453 707Q388 707 344 616T299 377Q299 318 322 286T387 254Q448 254 494 347T541 569Q541 707 453 707Z" />
<glyph unicode="7" glyph-name="seven" horiz-adv-x="901" d="M-45 0L559 1186H141L184 1460H1016L266 0H-45Z" />
<glyph unicode="8" glyph-name="eight" horiz-adv-x="901" d="M276 788L279 803Q147 881 147 1049Q147 1234 260 1356T557 1479Q707 1479 792 1396T877 1165T809 920T625 801V786Q813 741 813 483Q813 341 753 226T591 46T365 -18Q198 -18 102 78T6 336Q6 512
77 631T276 788ZM385 250Q448 250 494 325T541 520Q541 585 513 621T434 657Q367 657 322 583T276 391Q276 322 304 286T385 250ZM487 922Q542 922 578 978T614 1116Q614 1227 532 1227Q479 1227 443 1170T406 1024Q406 975 427 949T487 922Z" />
<glyph unicode="9" glyph-name="nine" horiz-adv-x="901" d="M383 0H74L426 553Q362 514 322 514Q202 514 136 597T70 831Q70 1007 133 1155T306 1389T551 1475Q698 1475 786 1373T874 1090Q874 864 753 604T383 0ZM442 772Q505 772 549 856T594 1071Q594 1200
504 1200Q443 1200 399 1114T354 899Q354 838 378 805T442 772Z" />
<glyph unicode=":" glyph-name="colon" horiz-adv-x="555" d="M467 705Q467 625 403 559T254 492Q188 492 144 538T100 659Q100 736 163 803T311 870Q380 870 423 824T467 705ZM385 193Q385 113 322 45T172 -23Q106 -23 62 24T18 147Q18 224 81 291T229 358Q299
358 342 313T385 193Z" />
<glyph unicode=";" glyph-name="semicolon" horiz-adv-x="555" d="M-178 -309L94 303H418L41 -309H-178ZM479 705Q479 626 415 559T264 492Q198 492 156 538T113 659Q113 736 176 803T324 870Q393 870 436 824T479 705Z" />
<glyph unicode="&lt;" glyph-name="less" horiz-adv-x="1705" d="M1442 1176V991L508 610L1442 229V47L264 530V690L1442 1176Z" />
<glyph unicode="=" glyph-name="equal" horiz-adv-x="1705" d="M254 901H1452V733H254V901ZM254 487H1452V322H254V487Z" />
<glyph unicode="&gt;" glyph-name="greater" horiz-adv-x="1705" d="M264 1176L1442 690V530L264 47V229L1198 610L264 991V1176Z" />
<glyph unicode="?" glyph-name="question" horiz-adv-x="919" d="M571 190Q571 106 507 41T358 -25Q292 -25 249 21T205 141Q205 225 268 288T416 352Q484 352 527 306T571 190ZM279 424L338 801Q350 799 373 799Q474 799 534 879T594 1083Q594 1134 572 1161T510
1188Q413 1188 397 1022H119Q138 1240 255 1359T563 1479Q728 1479 815 1393T903 1145Q903 946 821 804T608 627L575 424H279Z" />
<glyph unicode="@" glyph-name="at" horiz-adv-x="2048" d="M1233 707Q1219 791 1172 837T1049 883Q922 883 832 755T741 444Q741 345 786 293T915 240Q1004 240 1078 306T1178 479L1233 707ZM1174 283Q1119 196 1046 156T870 115Q718 115 638 201T557 451Q557
607 621 735T794 936T1028 1008Q1201 1008 1276 866L1331 973H1485L1337 387Q1329 347 1329 338Q1329 300 1355 277T1425 254Q1474 254 1531 283T1638 369Q1786 525 1786 762Q1786 1013 1601 1172T1110 1331Q834 1331 639 1206Q458 1093 360 915T262 520Q262 208
471 21T1030 -166Q1370 -166 1645 25L1712 -74Q1410 -301 1038 -301Q651 -301 406 -111Q98 124 98 522Q98 855 303 1108Q450 1287 656 1380T1116 1473Q1284 1473 1432 1427T1686 1300Q1950 1097 1950 764Q1950 601 1885 462T1700 225Q1559 113 1382 113Q1276 113
1225 153T1174 279V283Z" />
<glyph unicode="A" glyph-name="A" horiz-adv-x="1011" d="M-94 0L420 1460H831L922 0H627L621 250H283L203 0H-94ZM358 492H614L602 1047Q600 1124 600 1180Q600 1241 602 1276Q584 1202 537 1049L358 492Z" />
<glyph unicode="B" glyph-name="B" horiz-adv-x="1028" d="M4 0L233 1460H569Q792 1460 894 1389T997 1139Q997 976 928 879T713 739Q816 727 872 659T928 479Q928 355 875 251T729 86Q668 46 590 27T451 4T283 0H258H4ZM334 264Q370 260 387 260Q497 260 556
322T616 494Q616 567 573 601T440 635Q408 635 391 633L334 264ZM426 852Q442 850 471 850Q576 850 633 907T690 1067Q690 1142 650 1176T524 1210Q498 1210 483 1208L426 852Z" />
<glyph unicode="C" glyph-name="C" horiz-adv-x="892" d="M721 12Q625 -18 532 -18Q312 -18 183 133T53 555Q53 758 105 931T250 1224T470 1411T748 1479Q841 1479 934 1452L899 1171Q824 1186 780 1186Q662 1186 569 1106T426 893T375 600Q375 443 446 356T643
268Q694 268 760 295L721 12Z" />
<glyph unicode="D" glyph-name="D" horiz-adv-x="1103" d="M0 0L231 1460H471Q762 1460 901 1324T1040 903Q1040 675 972 478T793 168Q747 121 695 89T597 39T485 13T370 2T238 0H0ZM334 268Q339 268 349 267T365 266Q538 266 643 437T748 895Q748 1052 690 1122T500
1192H481L334 268Z" />
<glyph unicode="E" glyph-name="E" horiz-adv-x="813" d="M0 0L231 1460H860L819 1192H477L428 889H729L686 608H385L332 281H674L629 0H0Z" />
<glyph unicode="F" glyph-name="F" horiz-adv-x="794" d="M0 0L231 1460H860L819 1190H481L434 887H729L686 606H389L293 0H0Z" />
<glyph unicode="G" glyph-name="G" horiz-adv-x="1130" d="M528 563L569 829H1077Q1037 392 897 187T487 -18Q269 -18 156 119T43 524Q43 717 93 907T229 1239Q299 1355 409 1417T659 1479Q830 1479 937 1394T1102 1130L801 1028Q773 1200 639 1200Q509 1200 438
1018Q344 767 344 483Q344 254 510 254Q603 254 661 333T735 563H528Z" />
<glyph unicode="H" glyph-name="H" horiz-adv-x="1118" d="M0 0L231 1460H524L436 913H739L825 1460H1120L889 0H594L694 633H393L293 0H0Z" />
<glyph unicode="I" glyph-name="I" horiz-adv-x="546" d="M307 0H10L242 1460H539L307 0Z" />
<glyph unicode="J" glyph-name="J" horiz-adv-x="708" d="M557 489Q536 358 506 267T425 110T303 13T131 -18Q23 -18 -80 35L-20 334Q44 270 115 270Q151 270 176 285T217 336T243 409T262 512L414 1460H713L557 489Z" />
<glyph unicode="K" glyph-name="K" horiz-adv-x="933" d="M0 0L231 1460H522L424 848L743 1460H1053L666 754L829 0H522L399 686L291 0H0Z" />
<glyph unicode="L" glyph-name="L" horiz-adv-x="708" d="M0 0L231 1460H524L338 281H647L604 0H0Z" />
<glyph unicode="M" glyph-name="M" horiz-adv-x="1398" d="M475 0L510 1190Q487 1031 426 774L242 0H-47L319 1460H694L688 883Q685 679 647 313Q701 655 774 891L952 1460H1317L1237 0H936L999 676L1063 1190Q999 912 973 823L717 0H475Z" />
<glyph unicode="N" glyph-name="N" horiz-adv-x="1165" d="M4 0L236 1460H575L698 838Q700 829 707 790T719 729T731 661T743 578T753 488T760 383Q758 412 758 467Q758 628 786 840L877 1460H1165L934 0H637L487 700Q443 920 434 1069Q418 877 397 745L295 0H4Z" />
<glyph unicode="O" glyph-name="O" horiz-adv-x="1142" d="M45 510Q45 708 95 906T223 1239Q290 1354 401 1416T651 1479Q872 1479 985 1344T1098 944Q1098 762 1059 587T954 281Q880 135 760 59T481 -18Q270 -18 158 117T45 510ZM508 264Q579 264 628 310T711
451Q753 571 780 726T807 983Q807 1088 764 1142T639 1196Q496 1196 432 1006Q390 883 364 730T338 475Q338 264 508 264Z" />
<glyph unicode="P" glyph-name="P" horiz-adv-x="1024" d="M4 0L236 1460H592Q809 1460 909 1373T1010 1081Q1010 836 867 702T455 567Q410 567 387 569L297 0H4ZM430 850Q436 850 448 849T465 848Q578 848 637 903T696 1065Q696 1210 535 1210Q506 1210 489 1208L430
850Z" />
<glyph unicode="Q" glyph-name="Q" horiz-adv-x="1142" d="M438 428L633 582L713 446Q762 613 784 755T807 985Q807 1088 764 1142T639 1196Q497 1196 432 1008Q390 885 364 731T338 475Q338 374 377 320T489 266Q500 266 528 270L438 428ZM758 -121L674 20Q578
-18 481 -18Q273 -18 158 118T43 508Q43 705 93 904T221 1235Q289 1351 400 1414T651 1477Q869 1477 984 1344T1100 954Q1100 699 1034 479T877 166L961 23L758 -121Z" />
<glyph unicode="R" glyph-name="R" horiz-adv-x="1038" d="M4 0L236 1460H590Q809 1460 911 1375T1014 1100Q1014 907 925 796T678 682L877 0H575L403 659L297 0H4ZM430 850Q446 848 477 848Q595 848 657 905T719 1071Q719 1225 549 1225Q532 1225 492 1221L430 850Z" />
<glyph unicode="S" glyph-name="S" horiz-adv-x="884" d="M-18 74L35 391Q128 324 188 294T311 264Q384 264 427 306T471 412Q471 463 441 508T343 627Q329 641 322 649Q311 661 281 694T239 740T204 782T170 828T145 874T123 927T112 983T106 1049Q106 1239 229
1359T543 1479Q694 1479 864 1382L809 1061Q672 1178 575 1178Q521 1178 483 1143T444 1057Q444 1047 446 1037T450 1019T457 999T467 981T480 960T494 940T511 918T530 896T551 870T573 844Q579 837 608 803T643 761T673 724T702 684T726 646T748 604T764 562T778
514T784 464T788 406Q788 221 663 102T334 -18Q148 -18 -18 74Z" />
<glyph unicode="T" glyph-name="T" horiz-adv-x="768" d="M121 0L309 1184H84L129 1460H877L834 1184H602L416 0H121Z" />
<glyph unicode="U" glyph-name="U" horiz-adv-x="1114" d="M229 1460H526L383 559Q365 438 365 399Q365 336 398 302T492 268Q581 268 620 340Q648 392 675 552Q676 562 682 598L819 1460H1114L954 438Q939 343 919 277T862 151T773 57T641 2T455 -18Q53 -18 53
311Q53 370 74 485L229 1460Z" />
<glyph unicode="V" glyph-name="V" horiz-adv-x="944" d="M203 0L96 1460H399L424 733Q426 662 426 571Q426 494 412 289Q444 494 508 700L745 1460H1057L535 0H203Z" />
<glyph unicode="W" glyph-name="W" horiz-adv-x="1476" d="M481 0H172L115 1460H410L416 651V481Q416 436 408 295Q465 657 500 762L715 1460H961L979 582Q979 467 971 295Q1003 551 1030 645L1257 1460H1567L1077 0H801L786 825Q786 830 786 856T785 928T784
1024Q784 1031 785 1077T786 1163Q754 950 731 868L481 0Z" />
<glyph unicode="X" glyph-name="X" horiz-adv-x="976" d="M580 0L487 393Q472 456 463 563Q428 439 399 383L217 0H-119L322 772L131 1460H424L496 1161Q518 1066 518 987Q536 1071 575 1151L723 1460H1047L674 797L891 0H580Z" />
<glyph unicode="Y" glyph-name="Y" horiz-adv-x="858" d="M176 0L270 602L35 1460H328L408 1118Q448 935 457 864Q486 974 543 1096L717 1460H1032L565 606L469 0H176Z" />
<glyph unicode="Z" glyph-name="Z" horiz-adv-x="905" d="M-100 0L543 1184H121L166 1460H1008L367 285H821L776 0H-100Z" />
<glyph unicode="[" glyph-name="bracketleft" horiz-adv-x="567" d="M666 1507L631 1296H432L197 -188H397L365 -397H-111L190 1507H666Z" />
<glyph unicode="\" glyph-name="backslash" horiz-adv-x="757" d="M162 1479H330L612 -190H442L162 1479Z" />
<glyph unicode="]" glyph-name="bracketright" horiz-adv-x="567" d="M-147 -397L-115 -186H80L315 1298H121L154 1507H623L322 -397H-147Z" />
<glyph unicode="^" glyph-name="asciicircum" horiz-adv-x="2048" d="M915 1460H1133L1628 899H1421L1024 1296L625 899H418L915 1460Z" />
<glyph unicode="_" glyph-name="underscore" horiz-adv-x="1024" d="M0 -311H1024V-483H0V-311Z" />
<glyph unicode="`" glyph-name="grave" horiz-adv-x="1024" d="M424 1485H655L750 1114H633L424 1485Z" />
<glyph unicode="a" glyph-name="a" horiz-adv-x="882" d="M836 981L680 0H418L434 102Q374 36 325 6T219 -25Q12 -25 12 317Q12 513 59 667T190 907T383 993Q482 993 559 883L575 981H836ZM360 229Q421 229 455 330Q478 398 494 488T510 635Q510 750 436 750Q379
750 337 631T295 334Q295 279 310 254T360 229Z" />
<glyph unicode="b" glyph-name="b" horiz-adv-x="882" d="M-18 0L227 1550H492L385 891Q501 1001 606 1001Q809 1001 809 655Q809 463 764 309T638 68T459 -18Q336 -18 260 96L246 0H-18ZM459 748Q400 748 367 649Q341 572 326 487T311 342T328 255T383 227Q439
227 481 345T524 631Q524 692 510 720T459 748Z" />
<glyph unicode="c" glyph-name="c" horiz-adv-x="636" d="M578 748Q532 758 504 758Q397 758 334 660T270 410Q270 328 304 285T403 242Q450 242 494 262L471 20Q371 -18 283 -18Q161 -18 88 80T14 354Q14 646 132 822T444 999Q526 999 608 969L578 748Z" />
<glyph unicode="d" glyph-name="d" horiz-adv-x="882" d="M926 1550L680 0H428L444 98Q378 34 327 5T219 -25Q12 -25 12 313Q12 614 111 804T360 995Q483 995 559 883L662 1550H926ZM367 229Q391 229 414 255T455 330Q479 403 494 492T510 635Q510 750 436 750Q378
750 337 629T295 330Q295 229 367 229Z" />
<glyph unicode="e" glyph-name="e" horiz-adv-x="872" d="M565 592Q567 610 567 641Q567 706 538 742T455 778Q396 778 352 729T295 592H565ZM766 330Q724 169 612 76T354 -18Q187 -18 100 84T12 385Q12 673 133 836T467 999Q626 999 713 908T801 651Q801 558
780 426H266Q262 399 262 362Q262 289 294 249T383 209Q473 209 510 330H766Z" />
<glyph unicode="f" glyph-name="f" horiz-adv-x="571" d="M14 0L133 752H20L57 981H170L203 1186Q223 1319 239 1366Q259 1422 293 1464Q332 1515 389 1542T510 1569Q590 1569 659 1538L618 1272Q585 1282 557 1282Q516 1282 493 1239T455 1104L434 981H571L535
752H397L281 0H14Z" />
<glyph unicode="g" glyph-name="g" horiz-adv-x="882" d="M836 981L680 0Q667 -83 650 -143T604 -256T533 -341T429 -391T285 -410Q136 -410 58 -343T-20 -147Q-20 -121 -18 -109H223V-123Q223 -207 299 -207Q388 -207 422 18L434 102Q378 37 327 6T219 -25Q12
-25 12 317Q12 513 59 667T190 907T383 993Q482 993 559 883L575 981H836ZM360 229Q421 229 455 330Q478 398 494 488T510 635Q510 750 436 750Q379 750 337 631T295 334Q295 279 310 254T360 229Z" />
<glyph unicode="h" glyph-name="h" horiz-adv-x="894" d="M428 0L526 616Q530 637 530 653Q530 721 471 721Q419 721 382 666T328 506L248 0H-18L227 1550H492L381 850Q449 922 510 956T641 991Q723 991 767 943T811 803Q811 743 786 590L692 0H428Z" />
<glyph unicode="i" glyph-name="i" horiz-adv-x="468" d="M254 0H-10L145 981H410L254 0ZM164 1280Q164 1360 220 1419T356 1479Q420 1479 458 1441T496 1339Q496 1255 437 1196T297 1137Q237 1137 201 1177T164 1280Z" />
<glyph unicode="j" glyph-name="j" horiz-adv-x="468" d="M164 1280Q164 1360 220 1419T356 1479Q420 1479 458 1441T496 1339Q496 1255 437 1196T297 1137Q237 1137 201 1177T164 1280ZM-72 -395L145 981H410L193 -395H-72Z" />
<glyph unicode="k" glyph-name="k" horiz-adv-x="833" d="M-16 0L229 1550H494L352 641L559 981H858L555 532L725 0H442L322 446L250 0H-16Z" />
<glyph unicode="l" glyph-name="l" horiz-adv-x="468" d="M-12 0L233 1550H500L256 0H-12Z" />
<glyph unicode="m" glyph-name="m" horiz-adv-x="1271" d="M813 0L905 610Q909 631 909 659Q909 715 862 715Q821 715 787 671T741 555L657 0H399L492 610Q496 631 496 657Q496 685 483 700T446 715Q406 715 372 671T328 555L244 0H-18L137 981H385L365 846Q437
921 495 956T621 991T729 954T776 846Q842 920 903 955T1032 991Q1188 991 1188 799Q1188 752 1167 623L1069 0H813Z" />
<glyph unicode="n" glyph-name="n" horiz-adv-x="894" d="M428 0L526 616Q530 637 530 653Q530 721 471 721Q419 721 382 666T328 506L248 0H-18L137 981H393L375 848Q450 923 510 957T641 991Q723 991 767 943T811 803Q811 740 786 590L692 0H428Z" />
<glyph unicode="o" glyph-name="o" horiz-adv-x="903" d="M819 618Q819 322 699 152T379 -18Q14 -18 14 391Q14 666 137 833T459 1001Q630 1001 724 901T819 618ZM375 217Q465 217 516 320T567 608Q567 688 541 726T457 764Q367 764 316 659T264 367Q264 289 290
253T375 217Z" />
<glyph unicode="p" glyph-name="p" horiz-adv-x="882" d="M-78 -395L141 981H393L377 879Q443 943 493 972T600 1001Q807 1001 807 674Q807 364 710 173T461 -18Q334 -18 262 94L186 -395H-78ZM459 748Q400 748 367 649Q341 572 326 487T311 342Q311 227 385 227Q441
227 483 345T526 631Q526 692 511 720T459 748Z" />
<glyph unicode="q" glyph-name="q" horiz-adv-x="882" d="M840 981L608 -395H358L436 90Q320 -20 215 -20Q14 -20 14 326Q14 519 59 673T183 913T362 999Q485 999 563 887L582 981H840ZM360 227Q418 227 455 326Q482 400 498 486T514 631Q514 692 496 720T438
748Q380 748 337 628T293 332Q293 277 308 252T360 227Z" />
<glyph unicode="r" glyph-name="r" horiz-adv-x="616" d="M-18 0L137 981H391L373 846Q424 920 480 958T610 1004L571 729Q439 724 389 671Q349 628 328 510Q325 494 305 369L248 0H-18Z" />
<glyph unicode="s" glyph-name="s" horiz-adv-x="686" d="M-33 63L8 309Q124 215 231 215Q268 215 287 233T307 283Q307 310 290 336T256 379T195 430Q121 490 87 544T53 670Q53 812 152 905T408 999Q504 999 627 950L590 700Q482 760 408 760Q364 760 339 742T313
694Q313 681 318 670T338 645T363 622T402 591T446 557Q495 518 521 491T564 419T582 317Q582 167 487 75T236 -18Q102 -18 -33 63Z" />
<glyph unicode="t" glyph-name="t" horiz-adv-x="542" d="M29 0L147 752H49L86 981H184L229 1270H494L449 981H567L530 752H412L293 0H29Z" />
<glyph unicode="u" glyph-name="u" horiz-adv-x="884" d="M135 981H397L301 369Q293 315 293 301Q293 261 314 240T373 219Q398 219 415 228T443 250T462 291T474 341T485 408L575 981H840L731 311Q704 142 615 62T352 -18Q193 -18 112 52T31 258Q31 323 63 537L135 981Z" />
<glyph unicode="v" glyph-name="v" horiz-adv-x="780" d="M25 981H281L301 631Q305 537 305 473Q305 407 295 225Q339 449 403 612L545 981H821L383 0H133L25 981Z" />
<glyph unicode="w" glyph-name="w" horiz-adv-x="1177" d="M117 0L25 981H272L287 254Q298 378 348 518L518 981H727L717 254Q738 386 768 473L938 981H1212L793 0H557L567 672Q546 571 535 537L348 0H117Z" />
<glyph unicode="x" glyph-name="x" horiz-adv-x="782" d="M-121 0L215 514L63 981H340L379 791Q382 776 391 649Q405 743 426 788L516 981H813L528 528L688 0H410L360 215Q347 273 340 350Q324 282 285 201L186 0H-121Z" />
<glyph unicode="y" glyph-name="y" horiz-adv-x="757" d="M-53 -395L141 63L23 981H285L309 653Q315 562 315 494Q315 427 309 319Q341 464 408 639L539 981H807L223 -395H-53Z" />
<glyph unicode="z" glyph-name="z" horiz-adv-x="704" d="M-92 0L338 752H63L111 981H725L305 229H596L557 0H-92Z" />
<glyph unicode="{" glyph-name="braceleft" horiz-adv-x="1024" d="M874 1477V1298Q866 1298 850 1299T827 1300Q713 1300 677 1256T641 1085V844Q641 697 600 629T438 530Q559 500 600 431T641 217V-23Q641 -149 677 -194T829 -240Q836 -240 851 -239T874 -238V-414H811Q623
-414 539 -365Q476 -327 456 -260T436 -66V182Q436 325 385 384T205 444Q197 444 183 443T162 442V621Q169 621 183 620T205 618Q332 618 384 677T436 879V1126Q436 1255 455 1322T539 1427Q588 1456 656 1466T829 1477H874Z" />
<glyph unicode="|" glyph-name="bar" horiz-adv-x="1024" d="M424 1565H602V-483H424V1565Z" />
<glyph unicode="}" glyph-name="braceright" horiz-adv-x="1024" d="M152 1477H197Q301 1477 368 1467T485 1427Q550 1389 569 1322T588 1126V879Q588 736 639 677T819 618Q825 618 840 619T862 621V442Q855 442 841 443T819 444Q691 444 640 385T588 182V-66Q588
-193 569 -259T485 -365Q438 -394 370 -404T197 -414H152V-238Q160 -238 175 -239T197 -240Q257 -240 293 -230T349 -191T376 -126T383 -23V217Q383 362 425 431T588 530Q466 560 425 629T383 844V1085Q383 1211 348 1255T199 1300Q192 1300 176 1299T152 1298V1477Z"
/>
<glyph unicode="~" glyph-name="asciitilde" horiz-adv-x="1705" d="M1530 784V600Q1326 459 1149 459Q1058 459 958 494Q939 500 879 521T793 549T722 570T638 587T563 592Q402 592 178 434V621Q388 764 565 764Q619 764 677 754T767 734T858 705Q870 701 906
688T957 670T1003 656T1054 642T1100 635T1151 631Q1317 631 1530 784Z" />
</font>
</defs>
</svg>
